<svg xmlns="http://www.w3.org/2000/svg" viewBox="0 0 228.7 63.03"><defs><style>.cls-1{fill:#611888;}.cls-2{fill:#f88d38;}</style></defs><g id="Layer_2" data-name="Layer 2"><g id="Layer_3" data-name="Layer 3"><path class="cls-1" d="M31.8,30.89a21.31,21.31,0,0,1-2.79.75,7.11,7.11,0,0,1-7.38-2.92c-2-2.83-1.86-5.8-.15-8.74A52,52,0,0,1,41.67,6c1.59-.6,3.24-1,4.86-1.54A17,17,0,0,1,53.4,9.65c-.46.39-1,.74-1.38,1.17-4.06,4-8.09,8.09-12.16,12.12-2.55,2.52-5.14,5-7.71,7.51l-.37.46Z"/><path class="cls-2" d="M32.15,30.45c2.57-2.5,5.16-5,7.71-7.51,4.07-4,8.1-8.09,12.16-12.12.42-.43.92-.78,1.38-1.17a18.36,18.36,0,0,1,4.8,6.09,34.42,34.42,0,0,1-5,13c-2.75,4.65-6.4,8.58-10,12.52-1.94.62-3.81,1.64-6,1.16-4.54-1-6.92-4.92-5.83-9.49.16-.69.69-1.3.48-2.07l.09-.12Z"/><path class="cls-2" d="M46.53,4.41c-1.62.5-3.27.94-4.86,1.54A52,52,0,0,0,21.48,20a2.73,2.73,0,0,0-1.38.38,7.54,7.54,0,0,1-9.38-2.67A7.67,7.67,0,0,1,11.78,8,25.53,25.53,0,0,1,27,.3,29.64,29.64,0,0,1,45.73,3.71C46.06,3.89,46.4,4,46.53,4.41Z"/><path class="cls-1" d="M43.13,41.29c3.64-3.94,7.29-7.87,10-12.52a34.42,34.42,0,0,0,5-13A27.61,27.61,0,0,1,62.79,32a26.23,26.23,0,0,1-7.53,18.53c-3.06,3.18-7.36,3.66-10.59,1.24S40.83,45.28,43.13,41.29Z"/><path class="cls-1" d="M31.43,63C10.08,63-4.75,42.92,1.4,23.47c.72-2.27,2.29-3.25,4.06-2.54C7.05,21.57,7.6,23,7,25.07a24.74,24.74,0,0,0,29.9,31.31c.65-.17,1.29-.41,1.94-.53a2.92,2.92,0,0,1,3.48,2,2.83,2.83,0,0,1-1.84,3.53A27.8,27.8,0,0,1,31.43,63Z"/><path d="M85.78,39.22c0,5.92,2.73,9.18,7,9.18a7.48,7.48,0,0,0,5.44-2.51l2.09,2C98,52.24,94,54.17,88.93,54.17c-7.26,0-13.82-4.49-13.82-13.78,0-8.86,6.67-13.93,15.26-13.93,6,0,9.94,3.73,10.2,8.11-.69,2.14-1.92,3.1-4.06,3.1s-4.37-1.39-4.59-6.09l-.16-3.47,4.43,2.3a10.45,10.45,0,0,0-4.59-1.07C89.15,29.34,85.78,31.85,85.78,39.22Z"/><path d="M113.6,38.09l8.59-2.24V38.2a48.92,48.92,0,0,0-6.88,2.14,5.81,5.81,0,0,0-3.47,5.28c0,2.62,1.22,3.9,2.77,3.9a4.32,4.32,0,0,0,2.51-1.12l2.56-1.92.48.64-2.51,2.77c-2.34,2.57-4,4.28-8.06,4.28s-6.94-2.51-6.94-6.89C102.65,43.17,105,40.39,113.6,38.09Zm3.25,11.06V35.32c0-4.54-.69-6-4-6a22.77,22.77,0,0,0-5.08.69L112,27.79v3.36c0,4.33-2.09,6-4.38,6a3.81,3.81,0,0,1-4.06-2.88c0-4.59,4.43-7.79,13-7.79,7.36,0,10.09,3,10.09,10.35V49a.85.85,0,0,0,.91.91c.42,0,.8-.22,1.44-1.18l1.54.86c-1.28,3.25-3.36,4.54-7.15,4.54S117.49,52.35,116.85,49.15Z"/><path d="M146.91,48.88c2.51,0,4.27-2.19,5.66-4.59l.69.64c-2.88,6.51-6.4,9.24-11.37,9.24-5.87,0-10.57-4.54-10.57-13.62,0-8.92,6.09-14.09,11.9-14.09,5.24,0,7.32,3,9.67,8l-.54.91c-1.7-2.35-3-3.79-5.23-3.79-2.93,0-5,2.94-5,8.86C142.1,45.84,144,48.88,146.91,48.88Zm14.25,1.71v2.72L149.85,54l-.75-4.48V30.94l.37-.53V20.16l-3.42-.54v-2.4l12.5-2.4.91.58-.22,7.42V53.31L154.54,49Z"/><path d="M166.23,53.31c.11-2.4.16-7.9.16-11.21V39.54c0-2.94,0-4.6-.16-6.73l-2.88-.48V30.14l12.39-3.68,1,.58-.16,8v7.1c0,3.31.05,8.81.16,11.21Zm12.6-2.72v2.72H163.94V50.59l4.59-1.07h5.18ZM166.45,18.71a4.92,4.92,0,1,1,4.91,4.6A4.67,4.67,0,0,1,166.45,18.71Z"/><path d="M196.18,49.15a4.28,4.28,0,0,0,2.62-1.07l1.33,1.23c-1.44,3.09-4,4.86-8.43,4.86-5.29,0-8.33-2.25-8.33-8,0-2.08,0-3.63,0-5.71V31.31h-3V27.79l6.19-.8-3.41,2.29,4.05-9.55h6.36V45.62C193.57,48,194.69,49.15,196.18,49.15Zm2.3-21.84v4h-9.93v-4Z"/><path d="M200.51,40.12c0-7.95,5.87-13.66,14.09-13.66S228.7,32,228.7,40.12s-5,14.05-14.1,14.05S200.51,48.08,200.51,40.12Zm17.51.16c0-7.74-1.07-10.89-3.42-10.89s-3.42,3.15-3.42,10.89,1.07,10.95,3.42,10.95S218,48.08,218,40.28Z"/></g></g></svg>