<svg xmlns="http://www.w3.org/2000/svg" viewBox="0 0 62.8 63.03"><defs><style>.cls-1{fill:#611888;}.cls-2{fill:#f88d38;}</style></defs><g id="Layer_2" data-name="Layer 2"><g id="Layer_3" data-name="Layer 3"><path class="cls-1" d="M31.8,30.89a21.31,21.31,0,0,1-2.79.75,7.11,7.11,0,0,1-7.38-2.92c-2-2.83-1.86-5.8-.15-8.74A52,52,0,0,1,41.67,6c1.59-.6,3.24-1,4.86-1.54A17,17,0,0,1,53.4,9.65c-.46.39-1,.74-1.38,1.17-4.06,4-8.09,8.09-12.16,12.12-2.55,2.52-5.14,5-7.71,7.51l-.37.46Z"/><path class="cls-2" d="M32.15,30.45c2.57-2.5,5.16-5,7.71-7.51,4.07-4,8.1-8.09,12.16-12.12.42-.43.92-.78,1.38-1.17a18.36,18.36,0,0,1,4.8,6.09,34.42,34.42,0,0,1-5,13c-2.75,4.65-6.4,8.58-10,12.52-1.94.62-3.81,1.64-6,1.16-4.54-1-6.92-4.92-5.83-9.49.16-.69.69-1.3.48-2.07l.09-.12Z"/><path class="cls-2" d="M46.53,4.41c-1.62.5-3.27.94-4.86,1.54A52,52,0,0,0,21.48,20a2.73,2.73,0,0,0-1.38.38,7.54,7.54,0,0,1-9.38-2.67A7.67,7.67,0,0,1,11.78,8,25.53,25.53,0,0,1,27,.3,29.64,29.64,0,0,1,45.73,3.71C46.06,3.89,46.4,4,46.53,4.41Z"/><path class="cls-1" d="M43.13,41.29c3.64-3.94,7.29-7.87,10-12.52a34.42,34.42,0,0,0,5-13A27.61,27.61,0,0,1,62.79,32a26.23,26.23,0,0,1-7.53,18.53c-3.06,3.18-7.36,3.66-10.59,1.24S40.83,45.28,43.13,41.29Z"/><path class="cls-1" d="M31.43,63C10.08,63-4.75,42.92,1.4,23.47c.72-2.27,2.29-3.25,4.06-2.54C7.05,21.57,7.6,23,7,25.07a24.74,24.74,0,0,0,29.9,31.31c.65-.17,1.29-.41,1.94-.53a2.92,2.92,0,0,1,3.48,2,2.83,2.83,0,0,1-1.84,3.53A27.8,27.8,0,0,1,31.43,63Z"/></g></g></svg>